# OBJ generated by ONSHAPE BY PTC INC, 1.214 Units = meters
mtllib Caja.mtl
g Part 1
v 0.5 0.4365 -0.4365 
v 0.4365 0.4365 -0.4365 
v 0.4365 -0.4365 -0.4365 
v 0.5 -0.4365 -0.4365 
v 0.5 0.4365 0.4365 
v 0.4365 0.4365 0.4365 
v 0.5 -0.4365 0.4365 
v 0.4365 -0.4365 0.4365 
v 0.4365 0.5 0.4365 
v 0.4365 0.5 -0.4365 
v -0.4365 0.5 -0.4365 
v -0.4365 0.4365 -0.4365 
v -0.4365 0.4365 0.4365 
v -0.4365 0.5 0.4365 
v -0.4365 0.4365 0.5 
v 0.4365 0.4365 0.5 
v 0.4365 -0.4365 0.5 
v -0.4365 -0.4365 0.4365 
v -0.4365 -0.4365 0.5 
v 0.5 0.5 0.5 
v -0.5 0.5 0.5 
v -0.5 -0.5 0.5 
v 0.5 -0.5 0.5 
v 0.5 0.5 -0.5 
v 0.5 -0.5 -0.5 
v -0.5 0.5 -0.5 
v 0.4365 -0.5 0.4365 
v -0.4365 -0.5 0.4365 
v -0.5 -0.5 -0.5 
v -0.4365 -0.5 -0.4365 
v 0.4365 -0.5 -0.4365 
v -0.4365 -0.4365 -0.4365 
v 0.4365 0.4365 -0.5 
v 0.4365 -0.4365 -0.5 
v -0.4365 -0.4365 -0.5 
v -0.4365 0.4365 -0.5 
v -0.5 0.4365 0.4365 
v -0.5 -0.4365 0.4365 
v -0.5 -0.4365 -0.4365 
v -0.5 0.4365 -0.4365 
vn 1.27173e-16 2.11786e-32 1 
vn 0 -1 -6.35867e-17 
vn -1.27173e-16 -2.11786e-32 -1 
vn 0 1 6.35867e-17 
vn -1 -1.66533e-16 1.27173e-16 
vn 1.27173e-16 2.11786e-32 1 
vn -1.27173e-16 -2.11786e-32 -1 
vn 1 1.66533e-16 -1.27173e-16 
vn 0 -1 0 
vn -1 -1.9076e-16 0 
vn 0 1 0 
vn 1 1.9076e-16 0 
vn 0 0 1 
vn -1.66533e-16 1 0 
vn -1.27173e-16 -2.11786e-32 -1 
vn 1.11022e-16 -1 0 
vn -1 -1.66533e-16 1.27173e-16 
vn 1.27173e-16 2.11786e-32 1 
vn 0 0 -1 
vn 0 -1 0 
vn 0 1 0 
vn 1 1.66533e-16 -1.27173e-16 
vn -1.27173e-16 -2.11786e-32 -1 
vn -1 0 0 
vn 1.27173e-16 2.11786e-32 1 
vn 0 -1 -6.35867e-17 
vn 0 1 6.35867e-17 
vn 1 1.9076e-16 0 
usemtl 0.921569_0.800000_0.654902_0.000000_0.000000
o mesh0
f 1//1 2//1 3//1 
f 3//1 4//1 1//1 
o mesh1
f 2//2 1//2 5//2 
f 5//2 6//2 2//2 
o mesh2
f 5//3 7//3 8//3 
f 8//3 6//3 5//3 
o mesh3
f 7//4 4//4 3//4 
f 3//4 8//4 7//4 
o mesh4
f 9//5 10//5 2//5 
f 2//5 6//5 9//5 
o mesh5
f 10//6 11//6 12//6 
f 12//6 2//6 10//6 
o mesh6
f 9//7 6//7 13//7 
f 13//7 14//7 9//7 
o mesh7
f 14//8 13//8 12//8 
f 12//8 11//8 14//8 
o mesh8
f 15//9 13//9 6//9 
f 6//9 16//9 15//9 
o mesh9
f 6//10 8//10 17//10 
f 17//10 16//10 6//10 
o mesh10
f 8//11 18//11 19//11 
f 19//11 17//11 8//11 
o mesh11
f 19//12 18//12 13//12 
f 13//12 15//12 19//12 
o mesh12
f 20//13 21//13 15//13 
f 21//13 22//13 19//13 
f 19//13 15//13 21//13 
f 22//13 23//13 17//13 
f 17//13 19//13 22//13 
f 23//13 20//13 16//13 
f 16//13 17//13 23//13 
f 15//13 16//13 20//13 
o mesh13
f 24//12 20//12 5//12 
f 20//12 23//12 7//12 
f 7//12 5//12 20//12 
f 23//12 25//12 4//12 
f 4//12 7//12 23//12 
f 25//12 24//12 1//12 
f 1//12 4//12 25//12 
f 5//12 1//12 24//12 
o mesh14
f 20//14 24//14 10//14 
f 24//14 26//14 11//14 
f 11//14 10//14 24//14 
f 26//14 21//14 14//14 
f 21//14 20//14 9//14 
f 14//14 11//14 26//14 
f 10//14 9//14 20//14 
f 9//14 14//14 21//14 
o mesh15
f 27//15 28//15 18//15 
f 18//15 8//15 27//15 
o mesh16
f 23//16 22//16 28//16 
f 22//16 29//16 30//16 
f 30//16 28//16 22//16 
f 29//16 25//16 31//16 
f 31//16 30//16 29//16 
f 25//16 23//16 27//16 
f 27//16 31//16 25//16 
f 28//16 27//16 23//16 
o mesh17
f 27//17 8//17 3//17 
f 3//17 31//17 27//17 
o mesh18
f 31//18 3//18 32//18 
f 32//18 30//18 31//18 
o mesh19
f 2//17 33//17 34//17 
f 34//17 3//17 2//17 
o mesh20
f 24//19 25//19 34//19 
f 25//19 29//19 35//19 
f 35//19 34//19 25//19 
f 29//19 26//19 36//19 
f 26//19 24//19 33//19 
f 36//19 35//19 29//19 
f 34//19 33//19 24//19 
f 33//19 36//19 26//19 
o mesh21
f 36//20 33//20 2//20 
f 2//20 12//20 36//20 
o mesh22
f 3//21 34//21 35//21 
f 35//21 32//21 3//21 
o mesh23
f 28//22 30//22 32//22 
f 32//22 18//22 28//22 
o mesh24
f 37//23 13//23 18//23 
f 18//23 38//23 37//23 
o mesh25
f 26//24 29//24 39//24 
f 29//24 22//24 38//24 
f 38//24 39//24 29//24 
f 22//24 21//24 37//24 
f 21//24 26//24 40//24 
f 37//24 38//24 22//24 
f 39//24 40//24 26//24 
f 40//24 37//24 21//24 
o mesh26
f 40//25 39//25 32//25 
f 32//25 12//25 40//25 
o mesh27
f 40//26 12//26 13//26 
f 13//26 37//26 40//26 
o mesh28
f 18//27 32//27 39//27 
f 39//27 38//27 18//27 
o mesh29
f 35//28 36//28 12//28 
f 12//28 32//28 35//28 
